<mxfile host="Electron" agent="Mozilla/5.0 (Macintosh; Intel Mac OS X 10_15_7) AppleWebKit/537.36 (KHTML, like Gecko) draw.io/28.2.8 Chrome/140.0.7339.240 Electron/38.4.0 Safari/537.36" version="28.2.8">
  <diagram name="Page-1" id="hn5c30FMybEzzW4MSWcw">
    <mxGraphModel dx="1216" dy="905" grid="1" gridSize="10" guides="1" tooltips="1" connect="1" arrows="1" fold="1" page="1" pageScale="1" pageWidth="850" pageHeight="1100" math="0" shadow="0">
      <root>
        <mxCell id="0" />
        <mxCell id="1" parent="0" />
        <mxCell id="9sjIOKgs4C-zKTAgOIBQ-33" value="&lt;table class=&quot;ck-table-resized&quot; style=&quot;box-sizing: border-box; margin: 0px; padding: 0px; caption-side: bottom; border-collapse: collapse; color: rgb(33, 37, 41); font-family: SFProDisplay; font-size: 16px; font-style: normal; font-variant-ligatures: normal; font-variant-caps: normal; font-weight: 400; letter-spacing: normal; orphans: 2; text-transform: none; widows: 2; word-spacing: 0px; -webkit-text-stroke-width: 0px; white-space: normal; background-color: rgb(255, 255, 255); text-decoration-thickness: initial; text-decoration-style: initial; text-decoration-color: initial; border-style: none;&quot;&gt;&lt;tbody style=&quot;box-sizing: border-box; margin: 0px; padding: 0px; border-color: inherit; border-style: solid; border-width: 0px;&quot;&gt;&lt;tr style=&quot;box-sizing: border-box; margin: 0px; padding: 0.5rem; border-color: inherit; border-style: solid; border-width: 0px 0px 1px; color: rgb(0, 0, 0); background-color: rgb(255, 255, 255); box-shadow: rgba(0, 0, 0, 0) 0px 0px 0px 9999px inset; height: 25pt;&quot;&gt;&lt;td style=&quot;box-sizing: border-box; margin: 0px; padding: 5pt; border-color: rgb(0, 0, 0); border-style: solid; border-width: 1pt; overflow-wrap: break-word; overflow: hidden; vertical-align: top;&quot;&gt;&lt;p dir=&quot;ltr&quot; style=&quot;box-sizing: border-box; margin: 8pt 0px; padding: 0px; color: rgb(0, 0, 0); line-height: 1.8; text-align: center;&quot;&gt;&lt;span style=&quot;box-sizing: border-box; margin: 0px; padding: 0px; background-color: transparent; color: rgb(0, 0, 0); font-family: Arial, sans-serif; font-size: 12pt;&quot;&gt;&lt;span style=&quot;box-sizing: border-box; margin: 0px; padding: 0px; font-style: normal; font-variant: normal; text-decoration: none; vertical-align: baseline; white-space: pre-wrap;&quot;&gt;&lt;strong style=&quot;box-sizing: border-box; margin: 0px; padding: 0px; font-weight: bolder;&quot;&gt;Use Case A&lt;/strong&gt;&lt;/span&gt;&lt;/span&gt;&lt;/p&gt;&lt;/td&gt;&lt;td style=&quot;box-sizing: border-box; margin: 0px; padding: 5pt; border-color: rgb(0, 0, 0); border-style: solid; border-width: 1pt; overflow-wrap: break-word; overflow: hidden; vertical-align: top;&quot;&gt;&lt;p dir=&quot;ltr&quot; style=&quot;box-sizing: border-box; margin: 8pt 0px; padding: 0px; color: rgb(0, 0, 0); line-height: 1.8; text-align: center;&quot;&gt;&lt;span style=&quot;box-sizing: border-box; margin: 0px; padding: 0px; background-color: transparent; color: rgb(0, 0, 0); font-family: Arial, sans-serif; font-size: 12pt;&quot;&gt;&lt;span style=&quot;box-sizing: border-box; margin: 0px; padding: 0px; font-style: normal; font-variant: normal; text-decoration: none; vertical-align: baseline; white-space: pre-wrap;&quot;&gt;&lt;strong style=&quot;box-sizing: border-box; margin: 0px; padding: 0px; font-weight: bolder;&quot;&gt;Use Case B&lt;/strong&gt;&lt;/span&gt;&lt;/span&gt;&lt;/p&gt;&lt;/td&gt;&lt;td style=&quot;box-sizing: border-box; margin: 0px; padding: 5pt; border-color: rgb(0, 0, 0); border-style: solid; border-width: 1pt; overflow-wrap: break-word; overflow: hidden; vertical-align: top;&quot;&gt;&lt;p dir=&quot;ltr&quot; style=&quot;box-sizing: border-box; margin: 8pt 0px; padding: 0px; color: rgb(0, 0, 0); line-height: 1.8; text-align: center;&quot;&gt;&lt;span style=&quot;box-sizing: border-box; margin: 0px; padding: 0px; background-color: transparent; color: rgb(0, 0, 0); font-family: Arial, sans-serif; font-size: 12pt;&quot;&gt;&lt;span style=&quot;box-sizing: border-box; margin: 0px; padding: 0px; font-style: normal; font-variant: normal; text-decoration: none; vertical-align: baseline; white-space: pre-wrap;&quot;&gt;&lt;strong style=&quot;box-sizing: border-box; margin: 0px; padding: 0px; font-weight: bolder;&quot;&gt;Mối quan hệ&lt;/strong&gt;&lt;/span&gt;&lt;/span&gt;&lt;/p&gt;&lt;/td&gt;&lt;td style=&quot;box-sizing: border-box; margin: 0px; padding: 5pt; border-color: rgb(0, 0, 0); border-style: solid; border-width: 1pt; overflow-wrap: break-word; overflow: hidden; vertical-align: top;&quot;&gt;&lt;p dir=&quot;ltr&quot; style=&quot;box-sizing: border-box; margin: 8pt 0px; padding: 0px; color: rgb(0, 0, 0); line-height: 1.8; text-align: center;&quot;&gt;&lt;span style=&quot;box-sizing: border-box; margin: 0px; padding: 0px; background-color: transparent; color: rgb(0, 0, 0); font-family: Arial, sans-serif; font-size: 12pt;&quot;&gt;&lt;span style=&quot;box-sizing: border-box; margin: 0px; padding: 0px; font-style: normal; font-variant: normal; text-decoration: none; vertical-align: baseline; white-space: pre-wrap;&quot;&gt;&lt;strong style=&quot;box-sizing: border-box; margin: 0px; padding: 0px; font-weight: bolder;&quot;&gt;Giải thích&lt;/strong&gt;&lt;/span&gt;&lt;/span&gt;&lt;/p&gt;&lt;/td&gt;&lt;/tr&gt;&lt;tr style=&quot;box-sizing: border-box; margin: 0px; padding: 0.5rem; border-color: inherit; border-style: solid; border-width: 0px 0px 1px; color: rgb(0, 0, 0); background-color: rgb(255, 255, 255); box-shadow: rgba(0, 0, 0, 0) 0px 0px 0px 9999px inset; height: 11.5pt;&quot;&gt;&lt;td style=&quot;box-sizing: border-box; margin: 0px; padding: 5pt; border-color: rgb(0, 0, 0); border-style: solid; border-width: 1pt; overflow-wrap: break-word; overflow: hidden; vertical-align: top;&quot;&gt;&amp;nbsp;Đặt hàng&lt;/td&gt;&lt;td style=&quot;box-sizing: border-box; margin: 0px; padding: 5pt; border-color: rgb(0, 0, 0); border-style: solid; border-width: 1pt; overflow-wrap: break-word; overflow: hidden; vertical-align: top;&quot;&gt;&amp;nbsp;Kiểm tra giỏ hàng&lt;/td&gt;&lt;td style=&quot;box-sizing: border-box; margin: 0px; padding: 5pt; border-color: rgb(0, 0, 0); border-style: solid; border-width: 1pt; overflow-wrap: break-word; overflow: hidden; vertical-align: top;&quot;&gt;&amp;nbsp;include&lt;/td&gt;&lt;td style=&quot;box-sizing: border-box; margin: 0px; padding: 5pt; border-color: rgb(0, 0, 0); border-style: solid; border-width: 1pt; overflow-wrap: break-word; overflow: hidden; vertical-align: top;&quot;&gt;&amp;nbsp;khi đặt hàng thì phải kiểm tra giỏ hàng để kiểm tra có tồn tại sản phẩm hay không&lt;/td&gt;&lt;/tr&gt;&lt;tr style=&quot;box-sizing: border-box; margin: 0px; padding: 0.5rem; border-color: inherit; border-style: solid; border-width: 0px 0px 1px; color: rgb(0, 0, 0); background-color: rgb(255, 255, 255); box-shadow: rgba(0, 0, 0, 0) 0px 0px 0px 9999px inset; height: 11.5pt;&quot;&gt;&lt;td style=&quot;box-sizing: border-box; margin: 0px; padding: 5pt; border-color: rgb(0, 0, 0); border-style: solid; border-width: 1pt; overflow-wrap: break-word; overflow: hidden; vertical-align: top;&quot;&gt;&amp;nbsp;Xem đánh giá&lt;/td&gt;&lt;td style=&quot;box-sizing: border-box; margin: 0px; padding: 5pt; border-color: rgb(0, 0, 0); border-style: solid; border-width: 1pt; overflow-wrap: break-word; overflow: hidden; vertical-align: top;&quot;&gt;Đặt hàng&lt;/td&gt;&lt;td style=&quot;box-sizing: border-box; margin: 0px; padding: 5pt; border-color: rgb(0, 0, 0); border-style: solid; border-width: 1pt; overflow-wrap: break-word; overflow: hidden; vertical-align: top;&quot;&gt;&amp;nbsp;extend&lt;/td&gt;&lt;td style=&quot;box-sizing: border-box; margin: 0px; padding: 5pt; border-color: rgb(0, 0, 0); border-style: solid; border-width: 1pt; overflow-wrap: break-word; overflow: hidden; vertical-align: top;&quot;&gt;xem đánh giá xong nếu thấy tốt thì có thể đặt hàng, nếu không tốt thì không đặt&lt;/td&gt;&lt;/tr&gt;&lt;tr style=&quot;box-sizing: border-box; margin: 0px; padding: 0.5rem; border-color: inherit; border-style: solid; border-width: 0px 0px 1px; color: rgb(0, 0, 0); background-color: rgb(255, 255, 255); box-shadow: rgba(0, 0, 0, 0) 0px 0px 0px 9999px inset; height: 11.5pt;&quot;&gt;&lt;td style=&quot;box-sizing: border-box; margin: 0px; padding: 5pt; border-color: rgb(0, 0, 0); border-style: solid; border-width: 1pt; overflow-wrap: break-word; overflow: hidden; vertical-align: top;&quot;&gt;&amp;nbsp;Đặt hàng&lt;/td&gt;&lt;td style=&quot;box-sizing: border-box; margin: 0px; padding: 5pt; border-color: rgb(0, 0, 0); border-style: solid; border-width: 1pt; overflow-wrap: break-word; overflow: hidden; vertical-align: top;&quot;&gt;&amp;nbsp;Đề xuất hóa đơn&lt;/td&gt;&lt;td style=&quot;box-sizing: border-box; margin: 0px; padding: 5pt; border-color: rgb(0, 0, 0); border-style: solid; border-width: 1pt; overflow-wrap: break-word; overflow: hidden; vertical-align: top;&quot;&gt;&amp;nbsp;extend&lt;br&gt;&lt;/td&gt;&lt;td style=&quot;box-sizing: border-box; margin: 0px; padding: 5pt; border-color: rgb(0, 0, 0); border-style: solid; border-width: 1pt; overflow-wrap: break-word; overflow: hidden; vertical-align: top;&quot;&gt;đặt hàng xong có thể xuất hóa đơn hoặc không tùy người dùng&lt;/td&gt;&lt;/tr&gt;&lt;/tbody&gt;&lt;/table&gt;" style="text;whiteSpace=wrap;html=1;" vertex="1" parent="1">
          <mxGeometry x="70" y="300" width="730" height="220" as="geometry" />
        </mxCell>
      </root>
    </mxGraphModel>
  </diagram>
</mxfile>
